<?xml version="1.0" encoding="utf-8"?>
<!-- Generator: Adobe Illustrator 23.1.1, SVG Export Plug-In . SVG Version: 6.00 Build 0)  -->
<svg version="1.1" id="Capa_1" xmlns="http://www.w3.org/2000/svg" xmlns:xlink="http://www.w3.org/1999/xlink" x="0px" y="0px"
	 viewBox="0 0 512 512" style="enable-background:new 0 0 512 512;" xml:space="preserve">
<g>
	<path d="M466,0c-28.5,0-55.5,0-79.6,6.1c-24.8,6.2-43.7,18.4-57.3,37.1C305,34.3,280.4,30,256,30c-24.5,0-49.1,4.3-73.2,13.1
		c-13.6-18.7-32.4-30.8-57.3-37.1C101.5,0,74.5,0,46,0c-8.3,0-15,6.7-15,15v226c0,48.5,23.8,88.1,68.9,114.6
		c26.6,15.7,60,26.3,98.2,31.6C186.4,401,180,418.1,180,436c0,41.3,34.4,76,76,76c41.3,0,76-34.4,76-76c0-17.9-6.4-35-18.1-48.8
		c38.2-5.3,71.6-15.9,98.2-31.6C457.2,329.1,481,289.5,481,241V15C481,6.7,474.3,0,466,0z M61,30.1c43.7,0.4,74,3.8,93.5,25.7
		c-37.4,19.8-70.7,50.4-93.5,87.6L61,30.1z M302,436c0,19.7-13.2,37-31,43.4V436c0-8.3-6.7-15-15-15s-15,6.7-15,15v43.4
		c-17.8-6.4-31-23.7-31-43.4c0-21.9,16.3-40.8,37.1-45.1c6.5,0.1,11.3,0.1,17.8,0C285.7,395.2,302,414.1,302,436z M267.2,360.8
		c-7.4-1.1-15-1.1-22.4,0c-22.6-0.6-183.2-5.6-183.2-119.8c0-61.5,41.9-107.1,56.5-121.5c18.9-18.7,40.2-33.3,62.9-43.4V105
		c0,8.3,6.7,15,15,15s15-6.7,15-15V65.7c9.9-2.5,19.9-4.2,30-5.1V105c0,8.3,6.7,15,15,15s15-6.7,15-15V60.6
		c10.1,0.8,20.1,2.6,30,5.1V105c0,8.3,6.7,15,15,15s15-6.7,15-15V76.1c22.7,10.1,44,24.7,62.9,43.4c14.5,14.4,56.5,60,56.5,121.5
		C450.4,355.3,289.8,360.2,267.2,360.8L267.2,360.8z M357.5,55.8C377,33.8,407.3,30.5,451,30.1v113.3
		C428.9,107.4,396.2,76.2,357.5,55.8z"/>
</g>
</svg>
